<svg width="64" height="93" viewBox="0 0 64 93" fill="none" xmlns="http://www.w3.org/2000/svg">
<path d="M32.3998 92.7495C49.852 92.7495 63.9998 89.7499 63.9998 86.0496C63.9998 82.3493 49.852 79.3496 32.3998 79.3496C14.9476 79.3496 0.799805 82.3493 0.799805 86.0496C0.799805 89.7499 14.9476 92.7495 32.3998 92.7495Z" fill="#E2E2E2"/>
<path fill-rule="evenodd" clip-rule="evenodd" d="M32.5997 37.2499C32.5997 37.2499 38.9996 47.2498 50.9996 40.1498C62.9996 33.0498 61.7997 20.35 61.7997 20.35C61.7997 20.35 51.2997 13.05 39.1997 19.85C27.0997 26.75 32.5997 37.2499 32.5997 37.2499Z" fill="#BFBB52"/>
<path fill-rule="evenodd" clip-rule="evenodd" d="M15.2995 85.0498C15.2995 85.0498 22.7995 84.9497 22.9995 76.1497C23.1995 67.3497 15.9995 63.7498 15.9995 63.7498C15.9995 63.7498 8.59953 66.9497 8.19953 75.6497C7.79953 84.3497 15.2995 85.0498 15.2995 85.0498Z" fill="#58AA96"/>
<path fill-rule="evenodd" clip-rule="evenodd" d="M48.0994 84.7498C48.0994 84.7498 55.5994 84.6499 55.7994 75.8499C55.9994 67.0499 48.7994 63.4497 48.7994 63.4497C48.7994 63.4497 41.3993 66.6499 40.9993 75.3499C40.5993 84.1499 48.0994 84.7498 48.0994 84.7498Z" fill="#58AA96"/>
<path fill-rule="evenodd" clip-rule="evenodd" d="M31.5996 49.85C31.5996 49.85 25.1996 59.8499 13.1996 52.7499C1.19959 45.6499 2.39954 32.9498 2.39954 32.9498C2.39954 32.9498 12.8995 25.6498 24.9995 32.4498C36.9995 39.3498 31.5996 49.85 31.5996 49.85Z" fill="#BFBB52"/>
<path fill-rule="evenodd" clip-rule="evenodd" d="M31.5996 22.4498C31.5996 22.4498 25.1996 32.45 13.1996 25.35C1.19959 18.25 2.39954 5.54992 2.39954 5.54992C2.39954 5.54992 12.8995 -1.75008 24.9995 5.04992C36.9995 11.8499 31.5996 22.4498 31.5996 22.4498Z" fill="#BFBB52"/>
<path d="M63.6996 20.7498C63.5996 20.1498 63.2996 19.6499 62.8996 19.3499C62.3996 19.0499 51.2996 11.3498 38.1996 18.7498C36.4996 19.6498 35.1996 20.6498 34.0996 21.7498V21.0499C35.0996 16.9499 35.1996 9.34976 25.6996 3.94976C12.6996 -3.45024 1.49954 4.24986 0.99954 4.54986C0.49954 4.84986 0.199613 5.44976 0.199613 5.94976C0.0996128 6.54976 -0.90046 19.9497 11.9995 27.6497C12.3995 27.8497 12.6995 28.0497 12.9995 28.1497C6.19954 28.4497 1.49961 31.6498 1.19961 31.9498C0.699613 32.2498 0.399564 32.8499 0.399564 33.3499C0.299564 33.9499 -0.700387 47.3499 12.1996 55.0499C15.6996 57.1499 18.6996 57.8499 21.3996 57.8499C25.1996 57.8499 28.2996 56.0499 30.3996 54.3499V84.9498C30.3996 86.0498 31.2996 86.9498 32.3996 86.9498C33.4996 86.9498 34.3996 86.0498 34.1996 84.9498V49.1497C34.6996 47.5497 35.0996 45.2499 34.6996 42.5499C36.6996 43.9499 39.3996 45.2498 42.7996 45.2498C45.4996 45.2498 48.4995 44.4498 51.9995 42.4498C64.7995 34.8498 63.7996 21.3498 63.6996 20.7498ZM29.4995 33.8499C28.4995 32.9499 27.2996 32.1499 25.8996 31.3499C25.1996 30.9499 24.3996 30.5498 23.6996 30.2498C26.5996 29.7498 28.7996 28.3498 30.3996 26.9498V27.0499C29.3996 29.4499 29.1995 31.8499 29.4995 33.8499ZM4.09964 7.24981C6.59964 5.84981 14.5996 2.14991 23.7996 7.34991C28.4996 9.94991 30.0996 13.1499 30.5996 15.8499C30.4996 16.0499 30.3996 16.3497 30.3996 16.6497V19.8499L13.0996 9.94976C12.1996 9.44976 10.8996 9.74971 10.3996 10.6497C9.89956 11.5497 10.1996 12.8499 11.0996 13.3499L28.4995 23.3499C26.3995 25.5499 21.5995 28.7498 13.9995 24.2498C4.99954 18.8498 4.09964 10.1498 4.09964 7.24981ZM10.8996 40.7498L28.5996 50.9498C26.3996 53.0498 21.6996 56.0497 14.1996 51.6497C5.19961 46.3497 4.29959 37.5497 4.29959 34.6497C6.79959 33.2497 14.7995 29.5498 23.9995 34.7498C27.7995 36.8498 29.5996 39.3497 30.3996 41.6497V47.3499L12.8996 37.2498C11.9996 36.7498 10.6996 37.0498 10.1996 37.9498C9.59961 38.9498 9.89956 40.1498 10.8996 40.7498ZM49.8996 39.0499C42.2996 43.5499 37.4996 40.3497 35.3996 38.1497L52.7996 28.1497C53.6996 27.6497 54.0995 26.3498 53.4995 25.4498C52.9995 24.5498 51.6996 24.1498 50.7996 24.7498L33.9995 34.3499V28.2498C34.8995 26.1498 36.6996 24.0497 40.0996 22.1497C49.1996 17.0497 57.1996 20.6499 59.6996 22.0499C59.7996 24.9499 58.8996 33.7499 49.8996 39.0499Z" fill="#183D3D"/>
<path fill-rule="evenodd" clip-rule="evenodd" d="M31.6994 85.0498C31.6994 85.0498 39.1994 84.9497 39.3994 76.1497C39.5994 67.3497 32.3994 63.7498 32.3994 63.7498C32.3994 63.7498 24.9994 66.9497 24.5994 75.6497C24.1994 84.3497 31.6994 85.0498 31.6994 85.0498Z" fill="#58AA96"/>
<path d="M49.9995 61.9496C49.4995 61.6496 48.8995 61.6498 48.2995 61.8498C47.9995 61.9498 42.9996 64.2496 40.5996 69.9496C38.4996 64.4496 33.7996 62.0496 33.5996 61.9496C33.0996 61.6496 32.4995 61.6498 31.8995 61.8498C31.5995 61.9498 26.3996 64.2496 24.0996 70.1496C21.9996 64.4496 17.1995 61.9498 16.9995 61.8498C16.4995 61.5498 15.8995 61.5497 15.2995 61.7497C14.9995 61.8497 6.79951 65.5496 6.29951 75.4496C5.89951 83.8496 11.9995 86.5498 15.1995 86.8498H15.2995C17.7995 86.8498 21.8995 85.4497 23.7995 81.2497C25.5995 85.2497 29.3995 86.6498 31.6995 86.8498H31.7995C33.7995 86.8498 37.9996 85.5497 40.0996 81.4496C41.7996 85.2496 45.2995 86.6498 47.9995 86.8498C48.0995 86.8498 48.0996 86.8498 48.0996 86.8498C51.3996 86.8498 57.4995 84.5497 57.6995 76.0497C58.2995 66.2497 50.2995 62.1496 49.9995 61.9496ZM15.3995 82.9496C14.5995 82.8496 9.99953 82.0496 10.1995 75.6496C10.3995 69.8496 14.1995 66.9496 15.8995 65.9496C17.5995 67.1496 21.0995 70.2497 20.9995 76.0497C20.8995 82.3497 16.2995 82.8496 15.3995 82.9496ZM31.9995 82.9496C31.1995 82.8496 26.5995 82.0496 26.7995 75.6496C26.9995 69.8496 30.7995 66.9496 32.4995 65.9496C34.1995 67.1496 37.6996 70.2497 37.5996 76.0497C37.4996 82.3497 32.8995 82.8496 31.9995 82.9496ZM48.4995 82.9496C47.6995 82.8496 43.0995 82.0496 43.2995 75.6496C43.4995 69.8496 47.2995 66.9496 48.9995 65.9496C50.5995 67.1496 54.1996 70.2497 54.0996 76.0497C53.9996 82.3497 49.3995 82.8496 48.4995 82.9496Z" fill="#183D3D"/>
</svg>
