<svg width="45" height="83" viewBox="0 0 45 83" fill="none" xmlns="http://www.w3.org/2000/svg">
<path d="M20.2 82.75C31.3562 82.75 40.4 80.9591 40.4 78.75C40.4 76.5409 31.3562 74.75 20.2 74.75C9.04386 74.75 0 76.5409 0 78.75C0 80.9591 9.04386 82.75 20.2 82.75Z" fill="#E2E2E2"/>
<path d="M8.50018 79.5498C7.50018 79.5498 6.7002 78.7498 6.7002 77.7498V1.84985C6.7002 0.849854 7.50018 0.0498047 8.50018 0.0498047C9.50018 0.0498047 10.3002 0.849854 10.3002 1.84985V77.7498C10.3002 78.7498 9.50018 79.5498 8.50018 79.5498Z" fill="#183D3D"/>
<path fill-rule="evenodd" clip-rule="evenodd" d="M10.2999 24.7497C10.2999 24.7497 17.3999 35.8497 30.6999 28.0497C43.9999 20.1497 42.7999 6.04972 42.7999 6.04972C42.7999 6.04972 31.1999 -2.15038 17.6999 5.44962C4.19993 13.0496 10.2999 24.7497 10.2999 24.7497Z" fill="#BFBB52"/>
<path d="M21.6001 33.2498C13.3001 33.2498 8.90007 26.4499 8.80007 26.3499L8.7001 26.2498C8.6001 26.1498 2.00007 12.9498 16.8001 4.54981C31.1001 -3.45019 43.3001 4.84976 43.8001 5.24976C44.2001 5.54976 44.5001 6.04981 44.5001 6.54981C44.6001 7.14981 45.7001 21.8498 31.6001 30.2498C27.8001 32.4498 24.5001 33.2498 21.6001 33.2498ZM11.8001 24.5498C12.4001 25.4498 18.5001 33.8497 29.8001 27.1497C40.3001 20.9497 41.0001 10.6497 41.0001 7.64966C38.4001 6.14966 29.1001 1.64966 18.5001 7.64966C7.10009 14.0497 11.3001 23.4498 11.8001 24.5498Z" fill="#183D3D"/>
<path d="M9.60024 27.3498C9.00024 27.3498 8.40024 27.0496 8.10024 26.4496C7.60024 25.6496 7.90025 24.5497 8.80025 24.0497L31.1002 11.2497C31.9002 10.7497 33.0003 11.0496 33.5003 11.9496C34.0003 12.7496 33.7003 13.8498 32.8003 14.3498L10.5003 27.1496C10.2003 27.2496 9.90024 27.3498 9.60024 27.3498Z" fill="#183D3D"/>
</svg>
