<svg width="42" height="26" viewBox="0 0 42 26" fill="none" xmlns="http://www.w3.org/2000/svg">
<path d="M4.32971 4.40015H2.02979V24.7002H40.2297V4.7002H38.2297V21.6002C38.2297 21.6002 27.3297 20.9001 27.2297 20.9001C27.1297 20.9001 21.1298 22.0002 21.1298 22.0002L11.0298 20.8002L4.22974 22.2002V4.40015H4.32971Z" fill="#58AA96"/>
<path fill-rule="evenodd" clip-rule="evenodd" d="M25.3292 13.4002C25.3292 13.4002 27.4293 16.8002 31.5293 14.4002C35.6293 12.0002 35.1293 7.80023 35.1293 7.80023C35.1293 7.80023 31.6293 5.30028 27.5293 7.60028C23.4293 9.80028 25.3292 13.4002 25.3292 13.4002Z" fill="#BFBB52"/>
<path d="M28.7295 16.2003C26.7295 16.2003 25.2296 14.9004 24.6296 14.0004C24.6296 14.0004 24.6296 14.0003 24.6296 13.9003C23.8296 12.4003 23.4296 9.10035 27.1296 7.00035C31.5296 4.50035 35.3296 7.10031 35.5296 7.20031C35.7296 7.30031 35.8295 7.50028 35.8295 7.80028C35.8295 8.00028 36.2295 12.6003 31.8295 15.2003C30.7295 15.9003 29.6295 16.2003 28.7295 16.2003ZM26.0296 13.1003C26.3296 13.5003 27.9296 15.7003 31.1296 13.8003C34.0296 12.1003 34.3296 9.30028 34.4296 8.30028C33.5296 7.80028 30.9296 6.70026 28.0296 8.40026C24.7296 10.2003 25.8296 12.8003 26.0296 13.1003Z" fill="#255457"/>
<path d="M25.1296 14.4003C24.8296 14.4003 24.6296 14.3004 24.4296 14.0004C24.2296 13.6004 24.3295 13.1003 24.7295 12.9003L31.4296 9.00041C31.8296 8.80041 32.3296 8.90034 32.5296 9.30034C32.7296 9.70034 32.6295 10.2003 32.2295 10.4003L25.5296 14.3003C25.4296 14.3003 25.2296 14.4003 25.1296 14.4003Z" fill="#255457"/>
<path d="M38.0297 23.2001C37.9297 23.2001 37.8296 23.2002 37.6296 23.1002C37.5296 23.1002 30.3297 19.6002 21.4297 23.1002C21.2297 23.2002 21.0296 23.2002 20.8296 23.1002C20.7296 23.1002 12.1296 19.5002 4.62964 23.1002C4.42964 23.2002 4.12959 23.2002 3.82959 23.1002C3.62959 23.0002 3.42969 22.7001 3.42969 22.4001V2.90009C3.42969 2.60009 3.62959 2.40014 3.82959 2.20014C4.12959 2.00014 11.0297 -1.79981 20.9297 2.00019C22.6297 1.30019 31.2296 -1.59986 38.2296 2.20014C38.5296 2.30014 38.6296 2.60009 38.6296 2.90009V22.4001C38.6296 22.7001 38.5296 22.9002 38.2296 23.1002C38.3296 23.1002 38.1297 23.2001 38.0297 23.2001ZM12.2296 19.9001C16.5296 19.9001 20.1296 21.1002 21.1296 21.5002C28.5296 18.6002 34.7296 20.3001 37.1296 21.2001V3.30012C30.1296 -0.0998824 21.3296 3.50019 21.2296 3.50019C21.0296 3.60019 20.8296 3.60019 20.6296 3.50019C12.6296 0.200191 6.62966 2.50012 5.02966 3.30012V21.1002C7.62966 20.2002 10.0296 19.9001 12.2296 19.9001Z" fill="#255457"/>
<path d="M40.6296 26.0001H1.72961C1.32961 26.0001 0.929688 25.6001 0.929688 25.2001V3.90002C0.929688 3.50002 1.32961 3.1001 1.72961 3.1001H3.62964C4.02964 3.1001 4.42969 3.50002 4.42969 3.90002C4.42969 4.30002 4.02964 4.70007 3.62964 4.70007H2.52966V24.4H39.8296V4.70007H38.8296C38.4296 4.70007 38.0297 4.30002 38.0297 3.90002C38.0297 3.50002 38.4296 3.1001 38.8296 3.1001H40.6296C41.0296 3.1001 41.4297 3.50002 41.4297 3.90002V25.2001C41.4297 25.7001 41.0296 26.0001 40.6296 26.0001Z" fill="#255457"/>
<path d="M21.0295 23.2001C20.6295 23.2001 20.2295 22.8 20.2295 22.4V2.90002C20.2295 2.50002 20.6295 2.1001 21.0295 2.1001C21.4295 2.1001 21.8295 2.50002 21.8295 2.90002V22.4C21.8295 22.8 21.5295 23.2001 21.0295 23.2001Z" fill="#255457"/>
<path d="M7.22943 7.20009C6.92943 7.20009 6.62948 7.00009 6.52948 6.70009C6.32948 6.30009 6.62948 5.80009 7.02948 5.70009C12.7295 3.50009 18.2295 5.60009 18.4295 5.70009C18.8295 5.90009 19.0295 6.30009 18.9295 6.70009C18.7295 7.10009 18.3295 7.30009 17.9295 7.20009C17.8295 7.20009 12.8295 5.30009 7.62946 7.20009C7.42946 7.20009 7.32943 7.20009 7.22943 7.20009Z" fill="#255457"/>
<path d="M7.22943 12.3002C6.92943 12.3002 6.62948 12.1002 6.52948 11.8002C6.32948 11.4002 6.62948 10.9002 7.02948 10.8002C12.7295 8.60019 18.2295 10.7002 18.4295 10.8002C18.8295 11.0002 19.0295 11.4002 18.9295 11.8002C18.7295 12.2002 18.3295 12.4002 17.9295 12.3002C17.8295 12.3002 12.8295 10.4002 7.62946 12.3002C7.42946 12.3002 7.32943 12.3002 7.22943 12.3002Z" fill="#255457"/>
<path d="M7.22943 17.4003C6.92943 17.4003 6.62948 17.2003 6.52948 16.9003C6.32948 16.5003 6.62948 16.0003 7.02948 15.9003C12.7295 13.7003 18.2295 15.8003 18.4295 15.9003C18.8295 16.1003 19.0295 16.5003 18.9295 16.9003C18.7295 17.3003 18.3295 17.5003 17.9295 17.4003C17.8295 17.4003 12.8295 15.5003 7.62946 17.4003C7.42946 17.4003 7.32943 17.4003 7.22943 17.4003Z" fill="#255457"/>
</svg>
