<svg width="74" height="106" viewBox="0 0 74 106" fill="none" xmlns="http://www.w3.org/2000/svg">
<path d="M37.4 105.95C52.5326 105.95 64.8 102.95 64.8 99.2498C64.8 95.5494 52.5326 92.5498 37.4 92.5498C22.2674 92.5498 10 95.5494 10 99.2498C10 102.95 22.2674 105.95 37.4 105.95Z" fill="#E2E2E2"/>
<path fill-rule="evenodd" clip-rule="evenodd" d="M39.6998 76.6499C39.6998 76.6499 46.7998 87.7499 60.0998 79.9499C73.3998 72.0499 72.1998 57.9499 72.1998 57.9499C72.1998 57.9499 60.5998 49.7501 47.0998 57.3501C33.5998 64.9501 39.6998 76.6499 39.6998 76.6499Z" fill="#BFBB52"/>
<path d="M50.9999 85.0501C42.6999 85.0501 38.3 78.2499 38.2 78.1499L38.1 78.0501C38 77.9501 31.4 64.7501 46.2 56.3501C60.5 48.3501 72.7 56.6501 73.2 57.0501C73.6 57.3501 73.8999 57.8501 73.8999 58.3501C73.9999 58.9501 75.0999 73.6501 60.9999 82.0501C57.1999 84.2501 53.7999 85.0501 50.9999 85.0501ZM41.2 76.3501C41.8 77.2501 47.9 85.65 59.2 78.95C69.7 72.75 70.3999 62.45 70.3999 59.45C67.7999 57.95 58.4999 53.45 47.8999 59.45C36.4999 65.95 40.7 75.3501 41.2 76.3501Z" fill="#183D3D"/>
<path d="M38.9996 79.1498C38.3996 79.1498 37.7996 78.8499 37.4996 78.2499C36.9996 77.4499 37.2997 76.35 38.1997 75.85L60.4996 63.05C61.2996 62.55 62.3997 62.8499 62.8997 63.7499C63.3997 64.5499 63.0997 65.6498 62.1997 66.1498L39.8997 78.9499C39.5997 79.0499 39.2996 79.1498 38.9996 79.1498Z" fill="#183D3D"/>
<path fill-rule="evenodd" clip-rule="evenodd" d="M35.1999 76.6499C35.1999 76.6499 28.0999 87.7499 14.7999 79.9499C1.49989 72.0499 2.69992 57.9499 2.69992 57.9499C2.69992 57.9499 14.2999 49.7501 27.7999 57.3501C41.2999 64.9501 35.1999 76.6499 35.1999 76.6499Z" fill="#BFBB52"/>
<path d="M13.8999 82.0501C-0.200113 73.7501 0.899862 58.9501 0.999862 58.3501C0.999862 57.8501 1.29994 57.3501 1.69994 57.0501C2.19994 56.6501 14.3999 48.3501 28.6999 56.3501C43.4999 64.6501 36.7999 77.8501 36.7999 78.0501C36.7999 78.0501 36.7999 78.1499 36.6999 78.1499C36.5999 78.2499 32.1999 85.0501 23.8999 85.0501C20.9999 85.0501 17.5999 84.2501 13.8999 82.0501ZM26.8999 59.45C16.2999 53.45 6.99989 57.95 4.39989 59.45C4.39989 62.45 5.09996 72.75 15.6 78.95C26.8 85.55 33 77.2501 33.6 76.3501C34.1 75.3501 38.3999 65.95 26.8999 59.45Z" fill="#183D3D"/>
<path d="M35.8001 79.1498C36.4001 79.1498 37.0001 78.8499 37.3001 78.2499C37.8001 77.4499 37.5001 76.35 36.6001 75.85L14.3001 63.05C13.5001 62.55 12.4 62.8499 11.9 63.7499C11.4 64.5499 11.7001 65.6498 12.6001 66.1498L34.9 78.9499C35.2 79.0499 35.5001 79.1498 35.8001 79.1498Z" fill="#183D3D"/>
<path d="M37.8995 99.8501C36.8995 99.8501 36.0996 99.05 36.0996 98.05V30.95C36.0996 29.95 36.8995 29.1499 37.8995 29.1499C38.8995 29.1499 39.6996 29.95 39.6996 30.95V98.05C39.5996 99.05 38.8995 99.8501 37.8995 99.8501Z" fill="#183D3D"/>
<path fill-rule="evenodd" clip-rule="evenodd" d="M39.6998 54.55C39.6998 54.55 46.7998 65.65 60.0998 57.85C73.3998 49.95 72.1998 35.85 72.1998 35.85C72.1998 35.85 60.5998 27.6499 47.0998 35.2499C33.5998 42.8499 39.6998 54.55 39.6998 54.55Z" fill="#BFBB52"/>
<path d="M50.9999 62.95C42.6999 62.95 38.3 56.1501 38.2 56.0501L38.1 55.95C38 55.85 31.4 42.65 46.2 34.25C60.5 26.25 72.7 34.55 73.2 34.95C73.6 35.25 73.8999 35.75 73.8999 36.25C73.9999 36.85 75.0999 51.55 60.9999 59.95C57.1999 62.15 53.7999 62.95 50.9999 62.95ZM41.2 54.25C41.8 55.15 47.9 63.5501 59.2 56.8501C69.7 50.6501 70.3999 40.3501 70.3999 37.3501C67.7999 35.8501 58.4999 31.3501 47.8999 37.3501C36.4999 43.8501 40.7 53.25 41.2 54.25Z" fill="#183D3D"/>
<path d="M38.9996 57.05C38.3996 57.05 37.7996 56.7498 37.4996 56.1498C36.9996 55.3498 37.2997 54.2499 38.1997 53.7499L60.4996 40.9499C61.2996 40.4499 62.3997 40.7498 62.8997 41.6498C63.3997 42.4498 63.0997 43.55 62.1997 44.05L39.8997 56.85C39.5997 56.95 39.2996 57.05 38.9996 57.05Z" fill="#183D3D"/>
<path fill-rule="evenodd" clip-rule="evenodd" d="M35.1999 53.9499C35.1999 53.9499 28.0999 65.0499 14.7999 57.2499C1.49989 49.3499 2.69992 35.2499 2.69992 35.2499C2.69992 35.2499 14.2999 27.0498 27.7999 34.6498C41.2999 42.2498 35.1999 53.9499 35.1999 53.9499Z" fill="#BFBB52"/>
<path d="M13.8999 59.35C-0.200113 51.05 0.899862 36.2498 0.999862 35.6498C0.999862 35.1498 1.29994 34.65 1.69994 34.35C2.19994 33.95 14.3999 25.6498 28.6999 33.6498C43.4999 41.9498 36.7999 55.15 36.7999 55.35C36.7999 55.35 36.7999 55.4499 36.6999 55.4499C36.5999 55.5499 32.1999 62.35 23.8999 62.35C20.9999 62.45 17.5999 61.55 13.8999 59.35ZM26.8999 36.7499C16.2999 30.7499 6.99989 35.2499 4.39989 36.7499C4.39989 39.7499 5.09996 50.0499 15.6 56.2499C26.8 62.8499 33 54.5498 33.6 53.6498C34.1 52.6498 38.3999 43.2499 26.8999 36.7499Z" fill="#183D3D"/>
<path d="M35.8001 56.4499C36.4001 56.4499 37.0001 56.15 37.3001 55.55C37.8001 54.75 37.5001 53.6498 36.6001 53.1498L14.3001 40.35C13.5001 39.85 12.4 40.15 11.9 41.05C11.4 41.85 11.7001 42.9499 12.6001 43.4499L34.9 56.2499C35.2 56.3499 35.5001 56.4499 35.8001 56.4499Z" fill="#183D3D"/>
<path fill-rule="evenodd" clip-rule="evenodd" d="M37.7998 38.95C37.7998 38.95 50.9998 38.3501 50.7998 22.8501C50.5998 7.3501 37.6998 1.44995 37.6998 1.44995C37.6998 1.44995 24.7998 7.44995 24.6998 22.95C24.5998 38.35 37.7998 38.95 37.7998 38.95Z" fill="#BFBB52"/>
<path d="M50.7999 33.3502C46.6999 40.5502 38.5999 41.0501 38.3999 41.0501C38.2999 41.0501 38.3 41.0501 38.2 41.0501C38.1 41.0501 23.2999 40.2501 23.3999 23.2501C23.4999 6.8501 36.7999 0.45 37.3999 0.15C37.8999 -0.05 38.3999 -0.05 38.8999 0.15C39.4999 0.45 52.7999 6.75 52.9999 23.15C53.0999 27.55 52.1999 30.8502 50.7999 33.3502ZM38.2999 37.4501C39.3999 37.3501 49.6999 36.25 49.4999 23.15C49.2999 10.95 40.8 5.2501 38.2 3.7501C35.6 5.2501 27.0999 11.0501 26.9999 23.2501C26.8999 36.3501 37.1999 37.4501 38.2999 37.4501Z" fill="#183D3D"/>
<path d="M39.7004 40.75C39.4004 41.25 38.8004 41.6499 38.2004 41.6499C37.2004 41.6499 36.4004 40.8501 36.4004 39.8501V14.1499C36.4004 13.1499 37.2004 12.3501 38.2004 12.3501C39.2004 12.3501 40.0004 13.1499 40.0004 14.1499V39.8501C39.9004 40.1501 39.8004 40.45 39.7004 40.75Z" fill="#183D3D"/>
</svg>
