<svg width="31" height="30" viewBox="0 0 31 30" fill="none" xmlns="http://www.w3.org/2000/svg">
<path d="M15.4453 29.5434C23.4774 29.5434 29.9887 23.0321 29.9887 15C29.9887 6.96786 23.4774 0.456543 15.4453 0.456543C7.41317 0.456543 0.901855 6.96786 0.901855 15C0.901855 23.0321 7.41317 29.5434 15.4453 29.5434Z" fill="#E6AA68"/>
<path d="M15.3006 12.5503L13.6303 15.7351L14.3207 15.802L12.7728 18.92L13.4187 19.087L12.6392 20.6238L17.4833 22.4389L18.7973 21.7485L17.2717 19.1761L18.196 19.0759C18.196 19.0759 16.3585 15.7574 16.3808 15.802C16.3919 15.8465 17.2828 15.802 17.2828 15.802L15.3006 12.5503Z" fill="#58AA96"/>
<path d="M8.69729 14.5547L7.07146 17.45L7.88437 17.2941L6.45898 20.0669C6.45898 20.0669 6.87101 20.1338 6.87101 20.1672C6.87101 20.1894 6.54807 21.2362 6.54807 21.2362L10.2006 19.8219L10.8131 19.9444L9.61043 17.3721L10.312 17.2941L8.69729 14.5547Z" fill="#58AA96"/>
<path d="M8.31836 15.3675L8.98651 16.5034H8.56335L9.89965 19.8219L10.8128 19.9444L9.53217 17.372L10.3228 17.294L8.66357 14.4878L8.31836 15.3675Z" fill="#018E7D"/>
<path d="M2.98423 16.0134L1.3584 18.8085L2.21586 18.9199C2.21586 18.9199 1.54771 19.8219 1.56998 19.833C1.58112 19.8553 2.90628 22.2941 2.90628 22.2941C2.90628 22.2941 5.24481 21.5257 5.22254 21.5257C5.20027 21.5368 3.8751 18.9088 3.8751 18.9088L4.49871 18.9867L2.98423 16.0134Z" fill="#58AA96"/>
<path d="M2.85098 16.2139L2.49463 17.0602L3.44118 18.3631H2.71735L4.48795 21.8263C4.48795 21.8263 5.23405 21.4254 5.22291 21.4143C5.22291 21.4032 3.94229 18.9199 3.94229 18.9199L4.42113 18.931L2.85098 16.2139Z" fill="#018E7D"/>
<path d="M21.982 15.8909L20.5009 18.5746C20.5009 18.5746 21.2025 18.5412 21.2025 18.5746C21.2025 18.608 19.688 21.4365 19.688 21.4365L23.463 19.833L22.8506 18.5523L23.5187 18.608L21.982 15.8909Z" fill="#58AA96"/>
<path d="M21.6704 16.5481L22.4945 17.8621H21.8931L22.8397 19.9L23.441 19.7329L22.8842 18.4857L23.608 18.6305L21.9711 15.6238L21.6704 16.5481Z" fill="#018E7D"/>
<path d="M27.3828 15L25.924 17.8396L26.6144 17.8953L25.3115 20.412L28.463 21.559L29.1757 19.7884L28.2625 17.951L29.0198 17.8953L27.3828 15Z" fill="#58AA96"/>
<path d="M27.3386 15L28.9311 17.9844C28.9311 17.9844 28.1961 17.9287 28.1961 17.951C28.2072 17.9733 29.1983 19.8998 29.1983 19.8998L28.7974 20.9465L27.3052 17.3831H27.9845L27.0825 15.8129L27.3386 15Z" fill="#018E7D"/>
<path d="M14.9668 13.2515L14.9779 13.2738L16.047 15.178H15.3454L17.1272 18.5076H16.047L17.7396 22.1713L18.7753 21.815L17.3721 19.0867L18.1405 19.031C18.1405 19.031 16.3365 15.7014 16.3811 15.7459C16.4145 15.7794 17.2385 15.7237 17.2385 15.7237L15.2897 12.5388" fill="#018E7D"/>
<path d="M2.90625 22.3164L10.2002 19.8108L17.4719 22.4389L23.2403 19.8108L28.5744 21.5034C28.5744 21.5034 24.5989 29.6215 16.247 29.6215C7.89511 29.6215 3.45191 24.1538 2.90625 22.3164Z" fill="#BFBB52"/>
<path d="M21.9819 20.3898C21.9819 20.3898 27.3383 23.6191 27.2492 23.4967C27.1601 23.3742 28.5744 21.5145 28.5744 21.5145L23.1401 19.6548L21.9819 20.3898Z" fill="#AAA346"/>
<path d="M8.87549 20.2562L8.96457 20.2896L16.3254 22.9399L17.528 22.3163L10.3454 19.7217" fill="#AAA346"/>
<path d="M22.5276 10.7461L21.9819 11.3586L22.9396 14.0646L24.8773 12.8508L27.483 13.5412L26.9708 11.2027L22.5276 10.7461Z" fill="#BFBB52"/>
<path d="M8.38524 10.7461L8.94203 11.3586L7.97321 14.0646L6.03557 12.8508L3.44092 13.5412L3.95317 11.2027L8.38524 10.7461Z" fill="#BFBB52"/>
<path d="M7.93972 14.1537C7.8729 14.1537 7.81722 14.1314 7.76154 14.098L5.89072 12.9844L3.67468 13.6971C3.56333 13.7305 3.44083 13.7082 3.34061 13.6303C3.25152 13.5523 3.19584 13.441 3.20698 13.3185L3.21811 13.2294C3.21811 13.2183 3.21811 13.2183 3.21811 13.2071C3.55219 11.1359 4.39851 9.15367 5.668 7.47216C5.73482 7.38307 5.83504 7.32739 5.95753 7.32739C6.06889 7.32739 6.18025 7.38307 6.24707 7.47216L8.99762 11.3029C9.07557 11.4142 9.08671 11.5479 9.01989 11.6704C8.67468 12.3497 8.41856 13.0735 8.28493 13.8196C8.27379 13.9421 8.20698 14.0423 8.09562 14.098C8.05108 14.1425 7.9954 14.1537 7.93972 14.1537ZM5.89072 12.5947C5.95753 12.5947 6.01321 12.6169 6.06889 12.6392L7.90631 13.7305C8.05108 12.9621 8.3072 12.2272 8.66355 11.5256L5.95753 7.75055C4.74373 9.37639 3.93081 11.2806 3.619 13.2628V13.2962L5.7905 12.6058C5.8239 12.5947 5.85731 12.5947 5.89072 12.5947Z" fill="#255457"/>
<path d="M22.9286 14.1537C22.873 14.1537 22.8173 14.1425 22.7616 14.1091C22.6502 14.0534 22.5834 13.9421 22.5723 13.8196C22.4387 13.0735 22.1825 12.3497 21.8373 11.6704C21.7705 11.5479 21.7816 11.4142 21.8596 11.3029L24.6102 7.47216C24.677 7.38307 24.7772 7.32739 24.8997 7.32739C25.011 7.32739 25.1224 7.37193 25.1892 7.47216C26.4587 9.15367 27.305 11.1359 27.6391 13.2071C27.6391 13.2183 27.6391 13.2294 27.6391 13.2294L27.6502 13.3185C27.6614 13.441 27.6168 13.5523 27.5166 13.6303C27.4275 13.7082 27.305 13.7305 27.1825 13.6971L24.9665 12.9844L23.0957 14.098C23.0511 14.1314 22.9843 14.1537 22.9286 14.1537ZM22.2048 11.5256C22.5612 12.2272 22.8173 12.9621 22.9621 13.7305L24.7995 12.6392C24.8886 12.5835 24.9888 12.5724 25.089 12.6058L27.2605 13.2962V13.2628C26.9487 11.2695 26.1358 9.36525 24.922 7.75055L22.2048 11.5256Z" fill="#255457"/>
<path d="M3.53017 11.2695C3.31859 11.225 3.19609 11.0134 3.26291 10.8018C4.82193 5.55681 9.67716 1.72607 15.4344 1.72607C21.2028 1.72607 26.0691 5.57908 27.617 10.8463C27.6727 11.0468 27.5502 11.2584 27.3498 11.3141L23.4745 12.2272C23.2852 12.2717 23.0959 12.1604 23.0402 11.9822C22.0046 8.76394 18.9979 6.43654 15.4344 6.43654C11.9043 6.43654 8.90879 8.73053 7.85088 11.9043C7.7952 12.0824 7.60589 12.1938 7.41658 12.1492L3.53017 11.2695Z" fill="#F4D35E"/>
<path d="M23.3852 12.4388C23.1402 12.4388 22.9175 12.2829 22.8395 12.0491C21.8039 8.81966 18.8195 6.63703 15.4231 6.63703C12.06 6.63703 9.08675 8.77512 8.02885 11.9711C7.93976 12.2495 7.65023 12.4054 7.37183 12.3497L3.48542 11.4811C3.32951 11.4477 3.19588 11.3475 3.11793 11.2139C3.03998 11.0802 3.01771 10.9132 3.06225 10.7684C3.83063 8.16265 5.45646 5.81298 7.63909 4.16487C9.88853 2.46109 12.5834 1.55908 15.4119 1.55908C18.2516 1.55908 20.9464 2.46109 23.207 4.18714C25.3896 5.84639 27.0155 8.20719 27.7839 10.8241C27.8284 10.9689 27.8061 11.1359 27.7282 11.2695C27.6502 11.4032 27.5166 11.5034 27.3718 11.5368L23.4966 12.4499C23.4631 12.4277 23.4186 12.4388 23.3852 12.4388ZM15.4231 6.23614C18.9977 6.23614 22.1268 8.51899 23.2182 11.9154C23.2404 12.0045 23.3295 12.0491 23.4186 12.0268L27.2939 11.1136C27.3384 11.1025 27.383 11.0691 27.4052 11.0357C27.4275 10.9912 27.4386 10.9466 27.4164 10.9021C25.8685 5.61254 20.9353 1.92657 15.4231 1.92657C9.93308 1.92657 4.99989 5.6014 3.44087 10.8575C3.42974 10.9021 3.42974 10.9466 3.45201 10.9912C3.47428 11.0357 3.51882 11.058 3.56337 11.0691L7.44978 11.9377C7.53887 11.96 7.61682 11.9043 7.65023 11.8263C8.77495 8.48559 11.893 6.23614 15.4231 6.23614Z" fill="#255457"/>
<path d="M7.4272 9.29872L7.64992 9.64394L7.33811 10.0894L6.15771 8.15173L6.46952 7.7063L8.67442 8.18514L8.35148 8.64171L7.95059 8.54149L7.4272 9.29872ZM6.73678 8.25196L7.19335 8.94238L7.53856 8.4524L6.73678 8.25196Z" fill="#255457"/>
<path d="M10.4452 6.74843L9.62112 5.67939L9.92179 6.8932L9.6434 7.10478L8.55208 6.50344L9.37614 7.57248L8.99751 7.86202L7.72803 6.21391L8.1846 5.85756L9.38727 6.49231L9.07547 5.16714L9.53204 4.81079L10.8015 6.4589L10.4452 6.74843Z" fill="#255457"/>
<path d="M11.4806 6.18051L10.6343 4.27628L11.1131 4.0647L11.9594 5.96893L11.4806 6.18051Z" fill="#255457"/>
<path d="M14.2091 4.25399L14.3761 5.04464C14.1868 5.24508 13.875 5.43439 13.5855 5.49007C12.9619 5.6237 12.4051 5.27849 12.2714 4.68829C12.1489 4.09809 12.5276 3.55243 13.1734 3.4188C13.4741 3.35199 13.8193 3.39653 14.0643 3.5413L13.8527 3.95332C13.6746 3.8531 13.4518 3.80856 13.2625 3.8531C12.9285 3.91991 12.728 4.24285 12.806 4.57693C12.8839 4.92214 13.1957 5.13373 13.5298 5.05577C13.63 5.0335 13.7636 4.96669 13.8639 4.8776L13.7525 4.35421L14.2091 4.25399Z" fill="#255457"/>
<path d="M17.2603 4.35423C17.2157 4.95557 16.7035 5.37874 16.0576 5.33419C15.4228 5.28965 14.9663 4.79967 15.0108 4.1872C15.0554 3.58586 15.5676 3.17384 16.2023 3.21838C16.8594 3.26292 17.3048 3.7529 17.2603 4.35423ZM15.5565 4.23174C15.5342 4.57695 15.7792 4.86649 16.1021 4.88876C16.4251 4.91103 16.6923 4.6549 16.7257 4.30969C16.748 3.96448 16.5142 3.67495 16.1912 3.65268C15.8683 3.64154 15.5899 3.88653 15.5565 4.23174Z" fill="#255457"/>
<path d="M19.8881 4.33206L19.5652 4.65499C19.3981 4.46569 19.1643 4.28751 19.0084 4.23183C18.8747 4.18729 18.7745 4.19842 18.7411 4.29865C18.6186 4.63272 19.7211 4.8109 19.4761 5.52359C19.3424 5.91335 18.9193 6.00243 18.485 5.84653C18.162 5.73517 17.8614 5.49018 17.6943 5.21179L18.0284 4.89998C18.1732 5.14497 18.4293 5.36769 18.6297 5.44564C18.7856 5.50132 18.9081 5.47905 18.9416 5.36769C19.064 5.02248 17.9505 4.86658 18.1954 4.16502C18.3179 3.80867 18.7188 3.68617 19.1865 3.85321C19.4761 3.93116 19.7322 4.12047 19.8881 4.33206Z" fill="#255457"/>
<path d="M22.717 5.92443C23.2069 6.35873 23.2738 6.9712 22.8617 7.4389C22.4608 7.90661 21.8372 7.91775 21.325 7.48345L20.668 6.90438L22.0377 5.33423L22.717 5.92443ZM21.3584 6.93779L21.6479 7.18278C21.8929 7.39436 22.227 7.36095 22.472 7.08256C22.717 6.80416 22.6947 6.45895 22.4386 6.23623L22.1713 6.00238L21.3584 6.93779Z" fill="#255457"/>
<path d="M24.2089 8.18509L23.8636 8.41894L24.4093 9.243L24.0641 9.47685L23.5184 8.6528L23.1732 8.88665L23.7968 9.8332L23.4516 10.0671L22.5273 8.6862L24.2534 7.52808L25.1554 8.88665L24.8102 9.12051L24.2089 8.18509Z" fill="#255457"/>
<path d="M7.27175 22.1157L7.67264 22.5946L6.35861 23.697L7.0379 24.5099L6.65928 24.8329L5.5791 23.5411L7.27175 22.1157Z" fill="#255457"/>
<path d="M8.8862 26.08L8.12896 25.5344L7.73921 25.7793L7.21582 25.4007L9.30936 24.1758L9.81048 24.5321L9.30936 26.9041L8.77484 26.5254L8.8862 26.08ZM9.00869 25.6012L9.198 24.8551L8.55212 25.2671L9.00869 25.6012Z" fill="#255457"/>
<path d="M11.5259 27.6614L11.8377 27.2605C11.9936 27.4387 12.2497 27.5834 12.4947 27.6502C12.7508 27.7171 12.8622 27.6614 12.8845 27.5612C12.9735 27.216 11.6818 27.1603 11.8822 26.3696C11.9825 25.9799 12.3722 25.746 13.0069 25.9131C13.2853 25.9799 13.5637 26.1246 13.7419 26.2917L13.4412 26.6926C13.2631 26.5255 13.0738 26.4253 12.8845 26.3808C12.6283 26.3139 12.517 26.3808 12.4836 26.4921C12.4056 26.8262 13.6862 26.8819 13.4858 27.6725C13.3967 28.0511 12.9958 28.285 12.3611 28.1291C12.0159 28.04 11.6929 27.8507 11.5259 27.6614Z" fill="#255457"/>
<path d="M14.4545 26.1914L15.0781 26.2248L14.9556 28.4409L14.332 28.4074L14.4545 26.1914Z" fill="#255457"/>
<path d="M17.8063 27.7394L17.8731 28.2183L16.1025 28.4521L15.813 26.2584L17.539 26.0356L17.6059 26.5145L16.4923 26.6593L16.5368 27.0267L17.5168 26.8931L17.5725 27.3608L16.5925 27.4944L16.6482 27.8953L17.8063 27.7394Z" fill="#255457"/>
<path d="M19.6547 27.0267L19.3318 27.1492L19.5545 27.6949L18.9754 27.9287L18.1514 25.8686L19.0979 25.49C19.6547 25.2672 20.1335 25.412 20.3229 25.8797C20.4454 26.1804 20.3897 26.4699 20.1781 26.6926L20.8797 27.1603L20.256 27.4053L19.6547 27.0267ZM19.2315 25.9688L18.9086 26.1024L19.1536 26.7038L19.4765 26.5701C19.7215 26.4699 19.7883 26.314 19.7215 26.1247C19.6436 25.9354 19.4765 25.8686 19.2315 25.9688Z" fill="#255457"/>
<path d="M22.2493 25.5566L21.9709 25.7571L22.3273 26.2248L21.8261 26.6034L20.501 24.8216L21.3139 24.2203C21.8039 23.8528 22.2938 23.8862 22.5945 24.2871C22.795 24.5433 22.8061 24.8328 22.6613 25.1112L23.4631 25.3784L22.9286 25.7793L22.2493 25.5566ZM21.57 24.6435L21.2916 24.8551L21.6814 25.3784L21.9598 25.1669C22.1714 25.011 22.2048 24.8328 22.0823 24.6769C21.9598 24.5098 21.7816 24.4876 21.57 24.6435Z" fill="#255457"/>
<path d="M24.8326 23.1625L24.2536 23.8974L24.4874 24.2983L24.0977 24.7994L22.9507 22.6614L23.3293 22.1714L25.679 22.7616L25.2781 23.2738L24.8326 23.1625ZM24.3538 23.0288L23.6188 22.8173L23.9975 23.4743L24.3538 23.0288Z" fill="#255457"/>
<path d="M2.78402 22.628L2.65039 22.2493L9.92211 19.6658C10.1671 19.5767 10.4455 19.5767 10.6905 19.677L17.1715 22.1157C17.3497 22.1825 17.5613 22.1714 17.7283 22.0934L22.9065 19.7215C23.1626 19.599 23.4633 19.5879 23.7306 19.677L28.6303 21.3251L28.5078 21.7037L23.6081 20.0556C23.4299 19.9999 23.2406 20.011 23.0736 20.089L17.8954 22.4609C17.6281 22.5834 17.3052 22.5946 17.0268 22.4943L10.5457 20.0556C10.3898 19.9999 10.2116 19.9888 10.0446 20.0556L2.78402 22.628Z" fill="#255457"/>
<path d="M15.7457 23.4632C15.6678 23.4632 15.601 23.4186 15.5676 23.3518C15.523 23.2516 15.5676 23.1402 15.6678 23.0845L20.5453 20.8017C20.6455 20.7571 20.7569 20.8017 20.8125 20.9019C20.8571 21.0021 20.8125 21.1135 20.7123 21.1692L15.8348 23.452C15.8014 23.4632 15.7791 23.4632 15.7457 23.4632Z" fill="#255457"/>
<path d="M15.4453 30C7.17137 30 0.445312 23.2739 0.445312 15C0.445312 6.72606 7.17137 0 15.4453 0C23.7193 0 30.4453 6.72606 30.4453 15C30.4453 23.2739 23.7081 30 15.4453 30ZM15.4453 0.601339C7.50545 0.601339 1.04665 7.06013 1.04665 15C1.04665 22.9399 7.50545 29.3987 15.4453 29.3987C23.3852 29.3987 29.844 22.9399 29.844 15C29.844 7.06013 23.3852 0.601339 15.4453 0.601339Z" fill="#255457"/>
<path d="M18.6859 22.0046L16.9264 18.8754H17.795L15.9242 15.6015H16.8596L15.3451 12.8732L13.8306 15.6015H14.7549L12.8841 18.8754H13.7638L12.1714 21.704L11.8262 21.5035L13.0845 19.2652H12.2048L14.0756 15.9913H13.1513L15.3451 12.0603L17.5389 15.9913H16.6146L18.4743 19.2652H17.6057L19.0311 21.8153L18.6859 22.0046Z" fill="#255457"/>
<path d="M24.6214 23.5414L23.2628 21.1361H23.9866L22.4276 18.3967H23.2071L21.9933 16.214L20.7795 18.3967H21.559L20 21.1361H20.7238L19.3652 23.5414L19.02 23.3521L20.0557 21.5258H19.3207L20.8797 18.7864H20.1113L21.9933 15.4011L23.8864 18.7864H23.1069L24.677 21.5258H23.9421L24.9666 23.3521L24.6214 23.5414Z" fill="#255457"/>
<path d="M24.7436 22.8508L24.3984 22.6503L25.4341 20.8352H24.6991L26.2581 18.0957H25.4898L27.3717 14.7104L29.2648 18.0957H28.4853L30.0555 20.8352H29.7771L30.3561 22.6949L29.9775 22.8062L29.2314 20.4343H29.365L27.806 17.6949H28.5855L27.3717 15.5234L26.1579 17.6949H26.9374L25.3784 20.4343H26.1022L24.7436 22.8508Z" fill="#255457"/>
<path d="M11.3142 22.2941L9.94451 19.8776H10.6795L9.12046 17.1382H9.89997L8.68616 14.9667L7.47236 17.1382H8.25187L6.68171 19.8776H7.41668L6.0581 22.2941L5.71289 22.0937L6.73739 20.2785H6.00242L7.56144 17.5391H6.79307L8.68616 14.1538L10.5681 17.5391H9.79975L11.3588 20.2785H10.6238L11.6594 22.0937L11.3142 22.2941Z" fill="#255457"/>
<path d="M0.345212 23.9089L0 23.7084L1.0245 21.8933H0.289533L1.85969 19.1539H1.08018L2.97327 15.7686L4.85523 19.1539H4.08686L5.53452 21.704L5.33407 22.0269L5.95768 23.7418L5.57906 23.8755L4.89978 21.9712L5.07795 21.6928L3.40757 18.753H4.18708L2.97327 16.5815L1.75947 18.753H2.53898L0.968819 21.4924H1.70379L0.345212 23.9089Z" fill="#255457"/>
<path d="M18.7642 10.3564C18.9201 10.4566 18.9869 10.6348 19.1428 10.735C19.0983 10.6682 19.0537 10.5902 19.0203 10.5234C18.9869 10.4455 18.9758 10.3675 19.0314 10.2896C19.1428 10.3675 19.1428 10.5011 19.2319 10.5791C19.2096 10.5234 19.1985 10.4566 19.1762 10.4009C19.1873 10.4009 19.1873 10.3898 19.1985 10.3898C19.2319 10.4343 19.2764 10.49 19.3098 10.5345C19.4323 10.7239 19.5437 10.9243 19.6662 11.1136C19.6773 11.1359 19.6996 11.147 19.7219 11.1804C19.733 11.1581 19.733 11.147 19.733 11.1359C19.7553 11.0468 19.7664 11.0356 19.8666 11.0579C19.8889 11.0691 19.9223 11.0691 19.9557 11.0691C19.9446 11.0468 19.9334 11.0357 19.9334 11.0245C19.8889 10.9354 19.8889 10.8575 19.9334 10.7684C19.9446 10.7573 19.9557 10.735 19.978 10.735C19.9891 10.735 20.0003 10.7573 20.0114 10.7684C20.0225 10.7907 20.0337 10.8129 20.0448 10.8352C20.0782 10.7238 20.0671 10.5902 20.1784 10.5011C20.1896 10.5791 20.1896 10.6348 20.2007 10.7016C20.2118 10.5679 20.2118 10.4454 20.3343 10.3341C20.3455 10.4677 20.3566 10.5902 20.3677 10.7016C20.3789 10.7016 20.39 10.7016 20.4011 10.7016C20.4011 10.6459 20.4123 10.5902 20.4123 10.5345C20.4123 10.4232 20.468 10.323 20.5571 10.3007C20.5571 10.3452 20.5571 10.3786 20.5571 10.4232C20.5793 10.412 20.5905 10.4009 20.6127 10.3786C20.6239 10.412 20.635 10.4343 20.635 10.4566C20.6684 10.6014 20.6461 10.7461 20.5905 10.8909C20.5793 10.9354 20.5571 10.98 20.5571 11.0245C20.5682 11.1247 20.5236 11.2027 20.468 11.2806C20.4011 11.3809 20.3343 11.4811 20.2675 11.5813L20.2787 11.5924C20.3455 11.5702 20.4123 11.5479 20.4791 11.5368C20.557 11.5145 20.6239 11.4922 20.7018 11.4811C20.7241 11.4811 20.7686 11.4922 20.7798 11.5145C20.802 11.5368 20.8243 11.5813 20.8466 11.6147C20.9023 11.7038 20.8911 11.7929 20.8354 11.8486C20.8243 11.8263 20.8132 11.8152 20.8132 11.804C20.7352 11.8374 20.6684 11.8708 20.6016 11.9042C20.5905 11.9042 20.5793 11.9042 20.5793 11.9154C20.4568 12.0267 20.3009 12.049 20.145 12.1047C20.1005 12.1158 20.0671 12.1381 20.0337 12.1604C19.8889 12.2829 19.7107 12.3385 19.5326 12.3497C19.4769 12.3497 19.4657 12.372 19.4435 12.4276C19.4101 12.5279 19.3655 12.6281 19.321 12.7283C19.2987 12.7728 19.2653 12.7951 19.2207 12.7617C19.1317 12.8842 19.0426 13.0067 18.9089 13.0958C18.8978 13.0735 18.8867 13.0624 18.8867 13.0401C18.7976 13.1626 18.6751 13.2294 18.5415 13.2851C18.5081 13.2962 18.4635 13.3185 18.4412 13.3408C18.2853 13.4744 18.1072 13.5746 17.9179 13.6637C17.7842 13.7194 17.6506 13.7639 17.5281 13.8196C17.4724 13.8419 17.439 13.8642 17.3833 13.8085C17.4947 13.7417 17.6172 13.7417 17.684 13.6414C17.5504 13.6971 17.4167 13.7639 17.2831 13.8308C17.2831 13.8196 17.272 13.8196 17.272 13.8085C17.3165 13.7862 17.3611 13.7639 17.4056 13.7305C17.5615 13.6303 17.7174 13.5412 17.8622 13.4299C18.0181 13.2962 18.2074 13.196 18.3856 13.0846C18.4078 13.0735 18.4301 13.0512 18.4412 13.029C18.3633 13.0624 18.2965 13.1069 18.2185 13.1292C18.0738 13.1849 18.0403 13.1849 17.9735 13.1626C18.1851 13.1069 18.3633 12.9956 18.5303 12.8731C18.4524 12.8953 18.3856 12.9176 18.3076 12.9399L18.2965 12.9288C18.4524 12.8508 18.6194 12.784 18.7419 12.6504C18.7196 12.6392 18.7085 12.6392 18.6862 12.6281C18.8867 12.5501 18.9312 12.3608 19.0648 12.2383C18.9758 12.2495 18.9758 12.2495 18.9535 12.1604C18.9535 12.1492 18.9424 12.127 18.9312 12.127C18.8421 12.1158 18.831 12.049 18.831 11.9711C18.7976 11.9933 18.7753 12.0045 18.753 12.0267C18.753 11.9599 18.6417 11.9711 18.6974 11.882C18.586 11.8708 18.6862 11.7818 18.6417 11.7372C18.6194 11.7372 18.5971 11.7372 18.5749 11.7372C18.5749 11.7261 18.5749 11.7261 18.5749 11.7149C18.5971 11.7149 18.6305 11.7038 18.664 11.6927C18.6305 11.6704 18.6194 11.6704 18.5971 11.6481C18.5749 11.637 18.5415 11.6147 18.5415 11.6036C18.5415 11.5813 18.5637 11.559 18.5749 11.5479C18.5526 11.5368 18.4969 11.5145 18.4969 11.4811C18.4969 11.3809 18.5971 11.4477 18.6528 11.4031C18.6083 11.392 18.586 11.392 18.5526 11.3809C18.5303 11.3697 18.4969 11.3475 18.4858 11.3252C18.4746 11.314 18.4969 11.2806 18.5192 11.2584C18.5303 11.2361 18.5526 11.225 18.5637 11.2138C18.5192 11.1804 18.4746 11.147 18.4412 11.1136C18.4301 11.1025 18.419 11.0691 18.4301 11.0468C18.4412 11.0357 18.4746 11.0245 18.4969 11.0245C18.5526 11.0245 18.5971 11.0357 18.6528 11.0468C18.6417 11.0245 18.6194 11.0022 18.5971 10.9911C18.5415 10.9354 18.4858 10.8909 18.4412 10.8352C18.4078 10.8018 18.4078 10.7461 18.4412 10.7127C18.5303 10.7684 18.6194 10.8129 18.7085 10.8575C18.7085 10.8463 18.7196 10.8463 18.7196 10.8352C18.6528 10.7238 18.5303 10.6459 18.4969 10.49C18.6751 10.5345 18.7642 10.7016 18.9312 10.7461C18.7976 10.5679 18.7864 10.5457 18.8199 10.5011C18.7419 10.49 18.7308 10.4455 18.7642 10.3564ZM17.7508 13.6637C18.174 13.4855 18.5081 13.2071 18.7864 12.8508C18.4858 13.1737 18.1183 13.4076 17.7508 13.6637Z" fill="#255457"/>
<path d="M12.3831 9.30944C12.3831 9.30944 12.8508 8.75265 13.6971 7.62793C13.6971 7.62793 13.6526 7.95087 13.4967 8.14018C13.4967 8.14018 13.7194 8.02882 13.8419 7.78383C13.8419 7.78383 13.7862 8.11791 13.6749 8.22927C13.6749 8.22927 13.8753 8.18472 13.9533 8.02882C13.9533 8.02882 13.8419 8.31835 13.6971 8.37403C13.6971 8.37403 13.8976 8.37403 13.9533 8.28495C13.9533 8.28495 13.6415 9.49875 13.0067 9.96646C13.0067 9.96646 12.9733 10.0444 13.0178 10.1112C13.0178 10.1112 13.2628 10.1224 13.4187 10.1112C13.4187 10.1112 13.3965 10.2337 13.3631 10.2671C13.3631 10.2671 13.4299 10.2783 13.441 10.256C13.441 10.256 13.4521 10.3228 13.4076 10.3451C13.4076 10.3451 13.4299 10.3896 13.4521 10.3674C13.4521 10.3674 13.274 10.6012 13.6192 11.1135C13.9644 11.6257 14.0201 11.7705 14.0201 11.7705C14.0201 11.7705 13.2628 10.9687 13.029 10.8685C12.7951 10.7682 12.5501 10.8239 12.5501 10.8239C12.5501 10.8239 12.5613 10.7794 12.5836 10.7682C12.5836 10.7682 12.4945 10.7794 12.4611 10.8239C12.4611 10.8239 12.4499 10.7237 12.4833 10.7126C12.4833 10.7126 12.4833 10.5455 12.4388 10.4453C12.3942 10.3451 12.3831 10.3562 12.3497 10.3674C12.3163 10.3674 12.1938 10.6569 11.6815 10.7014C11.6815 10.7014 11.637 10.7014 11.6147 10.6569C11.6147 10.6569 11.5813 10.6903 11.5813 10.7237C11.5813 10.7237 10.7795 10.7905 10.2227 10.4676C10.2227 10.4676 10.4232 10.4898 10.49 10.3785C10.49 10.3785 10.078 10.3562 10 10.256C10 10.256 10.3452 10.2337 10.3787 10.1669C10.3787 10.1669 9.98889 10.178 9.88867 10.0444C9.88867 10.0444 11.6147 10.0555 11.8152 9.74374C11.8152 9.74374 11.8709 9.58784 11.7929 9.52103C11.715 9.45421 11.5479 9.14241 11.6815 9.00878C11.8152 8.87515 11.9933 8.90855 12.127 9.04218C12.2717 9.24263 12.294 9.37626 12.3831 9.30944Z" fill="#255457"/>
<path d="M11.7368 8.99768C11.7368 8.98655 11.7368 8.97541 11.748 8.98655C11.7591 8.98655 11.8593 9.01995 11.8593 9.01995L11.7368 9.07563C11.748 9.0645 11.7368 9.00882 11.7368 8.99768Z" fill="#255457"/>
<path d="M20.278 11.5925L20.2668 11.5814C20.3337 11.4812 20.3893 11.3698 20.4673 11.2807C20.523 11.2028 20.5564 11.1248 20.5564 11.0246C20.5564 10.9801 20.5675 10.9355 20.5898 10.891C20.6455 10.7462 20.6677 10.6126 20.6343 10.4567C20.6343 10.4344 20.6232 10.4121 20.6121 10.3787C20.5898 10.3899 20.5787 10.401 20.5564 10.4233C20.5564 10.3787 20.5564 10.3342 20.5564 10.3008C20.4673 10.3231 20.4116 10.4233 20.4116 10.5346C20.4116 10.5903 20.4005 10.646 20.4005 10.7017C20.3893 10.7017 20.3782 10.7017 20.3671 10.7017C20.3559 10.5792 20.3448 10.4678 20.3337 10.3342C20.2112 10.4455 20.2223 10.568 20.2 10.7017C20.1889 10.6349 20.1889 10.5792 20.1778 10.5012C20.0664 10.5903 20.0775 10.7239 20.0441 10.8353C20.033 10.813 20.0219 10.7908 20.0107 10.7685C19.9996 10.7574 19.9885 10.7351 19.9773 10.7351C19.9662 10.7351 19.9439 10.7574 19.9328 10.7685C19.8882 10.8576 19.8994 10.9355 19.9328 11.0246C19.9328 11.0357 19.9439 11.0469 19.955 11.0692C19.9216 11.0692 19.8882 11.0692 19.866 11.058C19.7657 11.0357 19.7657 11.0357 19.7323 11.136C19.7323 11.1471 19.7323 11.1471 19.7212 11.1805C19.7212 11.1805 19.8103 11.381 19.9216 11.4366C20.033 11.4923 20.1778 11.5925 20.2 11.5925C20.2223 11.5814 20.278 11.5925 20.278 11.5925Z" fill="#224C4C"/>
</svg>
