<svg width="27" height="36" viewBox="0 0 27 36" fill="none" xmlns="http://www.w3.org/2000/svg">
<path fill-rule="evenodd" clip-rule="evenodd" d="M13.9998 15.7995C13.9998 15.7995 16.5998 19.8996 21.4998 16.9996C26.3998 14.0996 25.8997 8.89947 25.8997 8.89947C25.8997 8.89947 21.5998 5.89952 16.6998 8.69952C11.6998 11.4995 13.9998 15.7995 13.9998 15.7995Z" fill="#BFBB52"/>
<path fill-rule="evenodd" clip-rule="evenodd" d="M6.90039 35.1996C6.90039 35.1996 10.0004 35.1996 10.0004 31.5996C10.1004 27.9996 7.1004 26.5996 7.1004 26.5996C7.1004 26.5996 4.10039 27.8996 3.90039 31.4996C3.90039 34.8996 6.90039 35.1996 6.90039 35.1996Z" fill="#58AA96"/>
<path fill-rule="evenodd" clip-rule="evenodd" d="M20.2998 35.1996C20.2998 35.1996 23.3998 35.1996 23.3998 31.5996C23.4998 27.9996 20.4998 26.5996 20.4998 26.5996C20.4998 26.5996 17.4998 27.8996 17.2998 31.4996C17.2998 34.8996 20.2998 35.1996 20.2998 35.1996Z" fill="#58AA96"/>
<path fill-rule="evenodd" clip-rule="evenodd" d="M13.5999 20.9001C13.5999 20.9001 10.9999 25.0001 6.09988 22.1001C1.19988 19.2001 1.69991 14.0002 1.69991 14.0002C1.69991 14.0002 5.99986 11.0001 10.8999 13.8001C15.7999 16.6001 13.5999 20.9001 13.5999 20.9001Z" fill="#BFBB52"/>
<path fill-rule="evenodd" clip-rule="evenodd" d="M13.5999 9.69989C13.5999 9.69989 10.9999 13.7998 6.09988 10.8998C1.19988 7.99984 1.69991 2.79986 1.69991 2.79986C1.69991 2.79986 5.99986 -0.200087 10.8999 2.59991C15.7999 5.39991 13.5999 9.69989 13.5999 9.69989Z" fill="#BFBB52"/>
<path d="M26.7001 9.09991C26.7001 8.89991 26.6001 8.59993 26.4001 8.49993C26.2001 8.39993 21.7001 5.29989 16.3001 8.19989C15.6001 8.59989 15.1001 8.99984 14.6001 9.39984V9.09991C15.0001 7.39991 15.1001 4.29991 11.2001 2.09991C5.9001 -0.90009 1.30007 2.19984 1.10007 2.39984C0.900068 2.49984 0.80008 2.79993 0.80008 2.99993C0.80008 3.19993 0.400068 8.69986 5.60007 11.7999C5.70007 11.8999 5.90009 11.8999 6.00009 11.9999C3.20009 12.0999 1.3001 13.3999 1.2001 13.4999C1.0001 13.5999 0.900056 13.8999 0.900056 14.0999C0.900056 14.2999 0.500105 19.7998 5.7001 22.8998C7.1001 23.6998 8.40009 23.9999 9.50009 23.9999C11.0001 23.9999 12.3001 23.2999 13.2001 22.5999V35.0999C13.2001 35.4999 13.6001 35.8998 14.0001 35.8998C14.4001 35.8998 14.8001 35.4999 14.7001 35.0999V20.4999C14.9001 19.7999 15.1001 18.8999 14.9001 17.7999C15.7001 18.3999 16.8001 18.8998 18.2001 18.8998C19.3001 18.8998 20.5001 18.5999 22.0001 17.7999C27.1001 14.7999 26.7001 9.29991 26.7001 9.09991ZM12.7001 14.3998C12.3001 13.9998 11.8001 13.6998 11.2001 13.3998C10.9001 13.1998 10.6001 13.0999 10.3001 12.9999C11.5001 12.7999 12.4001 12.1999 13.0001 11.6999C12.7001 12.5999 12.6001 13.5998 12.7001 14.3998ZM2.40006 3.49993C3.40006 2.89993 6.70006 1.39994 10.4001 3.49993C12.3001 4.59994 13.0001 5.89993 13.2001 6.99993C13.2001 7.09993 13.1001 7.19986 13.1001 7.29986V8.59991L6.00009 4.49993C5.60009 4.29993 5.10006 4.39986 4.90006 4.79986C4.70006 5.19986 4.8001 5.69984 5.2001 5.89984L12.3001 9.99994C11.4001 10.8999 9.50006 12.1998 6.40006 10.3998C2.70006 8.29984 2.40006 4.69993 2.40006 3.49993ZM5.10007 17.1999L12.3001 21.2999C11.4001 22.1999 9.50006 23.3999 6.40006 21.5999C2.70006 19.3999 2.40006 15.8999 2.40006 14.6999C3.40006 14.0999 6.70006 12.5999 10.4001 14.6999C11.9001 15.5999 12.7001 16.5999 13.0001 17.4999V19.7999L5.80008 15.6999C5.40008 15.4999 4.9001 15.5999 4.7001 15.9999C4.60011 16.4999 4.70007 16.9999 5.10007 17.1999ZM21.0001 16.4999C17.9001 18.2999 15.9001 16.9999 15.1001 16.0999L22.2001 11.9999C22.6001 11.7999 22.7001 11.2998 22.5001 10.8998C22.3001 10.4998 21.8001 10.3999 21.4001 10.5999L14.6001 14.4999V11.9999C15.0001 11.1999 15.7001 10.2999 17.1001 9.49994C20.8001 7.39994 24.1001 8.89993 25.1001 9.49994C25.1001 10.7999 24.7001 14.2999 21.0001 16.4999Z" fill="#255457"/>
<path fill-rule="evenodd" clip-rule="evenodd" d="M13.5996 35.1996C13.5996 35.1996 16.6996 35.1996 16.6996 31.5996C16.7996 27.9996 13.7996 26.5996 13.7996 26.5996C13.7996 26.5996 10.7996 27.8996 10.5996 31.4996C10.5996 34.8996 13.5996 35.1996 13.5996 35.1996Z" fill="#58AA96"/>
<path d="M21.0997 25.7996C20.8997 25.6996 20.5997 25.6996 20.3997 25.7996C20.2997 25.7996 18.1997 26.7997 17.1997 29.0997C16.2997 26.8997 14.3997 25.8996 14.2997 25.7996C14.0997 25.6996 13.7997 25.6996 13.5997 25.7996C13.4997 25.7996 11.3997 26.7996 10.3997 29.1996C9.4997 26.8996 7.59973 25.8996 7.49973 25.7996C7.29973 25.6996 6.99972 25.6996 6.79972 25.7996C6.69972 25.8996 3.29971 27.2996 3.09971 31.3996C2.99971 34.7996 5.39975 35.8997 6.69975 35.9997C6.69975 35.9997 6.69972 35.9997 6.79972 35.9997C7.79972 35.9997 9.49972 35.3996 10.2997 33.6996C10.9997 35.2996 12.5997 35.8997 13.4997 35.9997C13.4997 35.9997 13.4997 35.9997 13.5997 35.9997C14.3997 35.9997 16.0997 35.4996 16.9997 33.7996C17.6997 35.2996 19.0997 35.8997 20.1997 35.9997C20.1997 35.9997 20.1997 35.9997 20.2997 35.9997C21.5997 35.9997 24.1997 34.9997 24.1997 31.5997C24.3997 27.5997 21.1997 25.8996 21.0997 25.7996ZM6.99973 34.3996C6.69973 34.3996 4.7997 33.9996 4.8997 31.3996C4.9997 29.0996 6.49975 27.8996 7.19975 27.3996C7.89975 27.8996 9.29972 29.1997 9.29972 31.4997C9.19972 34.1997 7.29973 34.3996 6.99973 34.3996ZM13.7997 34.3996C13.4997 34.3996 11.5997 33.9996 11.6997 31.3996C11.7997 29.0996 13.2997 27.8996 13.9997 27.3996C14.6997 27.8996 16.0997 29.1997 16.0997 31.4997C15.9997 34.1997 14.0997 34.3996 13.7997 34.3996ZM20.4997 34.3996C20.1997 34.3996 18.2997 33.9996 18.3997 31.3996C18.4997 29.0996 19.9997 27.8996 20.6997 27.3996C21.3997 27.8996 22.7997 29.1997 22.7997 31.4997C22.6997 34.1997 20.7997 34.3996 20.4997 34.3996Z" fill="#255457"/>
</svg>
