<svg width="34" height="33" viewBox="0 0 34 33" fill="none" xmlns="http://www.w3.org/2000/svg">
<path d="M14.5999 32.0999C14.1999 32.0999 13.7998 31.6998 13.7998 31.2998V15.8998C13.7998 15.4998 14.1999 15.0999 14.5999 15.0999C14.9999 15.0999 15.3999 15.4998 15.3999 15.8998V31.2998C15.3999 31.6998 15.0999 32.0999 14.5999 32.0999Z" fill="#255457"/>
<path fill-rule="evenodd" clip-rule="evenodd" d="M14.2998 25.5998C14.2998 25.5998 15.3998 20.7997 9.7998 19.2997C4.1998 17.7997 0.799805 21.8997 0.799805 21.8997C0.799805 21.8997 1.6998 27.0998 7.2998 28.6998C12.8998 30.2998 14.2998 25.5998 14.2998 25.5998Z" fill="#58AA96"/>
<path d="M9.5 29.6997C8.8 29.6997 7.99998 29.5997 7.09998 29.3997C1.09998 27.6997 0.1 22.1998 0 21.9998C0 21.7998 -4.88311e-05 21.4997 0.199951 21.3997C0.399951 21.1997 4 16.9998 10 18.4998C16.3 20.0998 15.1 25.5997 15.1 25.6997C15.1 25.6997 15.1 25.6997 15.1 25.7997C15.2 25.6997 13.9 29.6997 9.5 29.6997ZM1.79993 21.9998C2.09993 23.1998 3.39998 26.5997 7.59998 27.7997C12.1 29.0997 13.5 25.6997 13.7 25.1997C13.8 24.5997 14.3 21.0997 9.69995 19.8997C5.49995 18.7997 2.59993 21.1998 1.79993 21.9998Z" fill="#255457"/>
<path d="M14.6001 26.2997C14.5001 26.2997 14.5001 26.2997 14.4001 26.2997L7.30002 24.3996C6.90002 24.2996 6.60005 23.8996 6.70005 23.3996C6.80005 22.9996 7.20005 22.6997 7.70005 22.7997L14.8 24.6997C15.2 24.7997 15.5001 25.1997 15.4001 25.6997C15.3001 26.0997 15.0001 26.2997 14.6001 26.2997Z" fill="#255457"/>
<path d="M14.3998 16C11.8998 16 9.79976 15.2 8.19976 13.5C4.69976 9.7 5.09979 2.99995 5.09979 2.69995C5.09979 2.29995 5.49983 2 5.89983 2H7.99981C8.39981 2 8.79974 2.39993 8.79974 2.79993C8.79974 3.19993 8.39981 3.59998 7.99981 3.59998H6.59979C6.59979 5.39998 6.89974 9.7999 9.29974 12.3999C10.4997 13.6999 12.1997 14.3999 14.2997 14.3999C14.6997 14.3999 15.0998 14.8 15.0998 15.2C15.0998 15.6 14.7998 16 14.3998 16Z" fill="#255457"/>
<path d="M14.5002 16C14.1002 16 13.7002 15.6 13.7002 15.2C13.7002 14.8 14.1002 14.3999 14.5002 14.3999C16.6002 14.3999 18.3002 13.6999 19.5002 12.3999C21.9002 9.7999 22.2002 5.29998 22.2002 3.59998H20.8002C20.4002 3.59998 20.0002 3.19993 20.0002 2.79993C20.0002 2.39993 20.4002 2 20.8002 2H22.9003C23.3003 2 23.7002 2.29995 23.7002 2.69995C23.7002 2.99995 24.1002 9.7 20.6002 13.5C19.1002 15.1 17.1002 16 14.5002 16Z" fill="#255457"/>
<path d="M9.69983 5.09985C8.39983 5.09985 7.2998 3.99983 7.2998 2.69983C7.2998 1.39983 8.39983 0.299805 9.69983 0.299805C10.9998 0.299805 12.0999 1.39983 12.0999 2.69983C12.0999 3.99983 10.9998 5.09985 9.69983 5.09985ZM9.69983 1.99988C9.29983 1.99988 8.8999 2.2998 8.8999 2.7998C8.8999 3.2998 9.19983 3.59985 9.69983 3.59985C10.0998 3.59985 10.4999 3.2998 10.4999 2.7998C10.4999 2.2998 10.0998 1.99988 9.69983 1.99988Z" fill="#255457"/>
<path d="M19.2998 5.09985C17.9998 5.09985 16.8999 3.99983 16.8999 2.69983C16.8999 1.39983 17.9998 0.299805 19.2998 0.299805C20.5998 0.299805 21.6998 1.39983 21.6998 2.69983C21.6998 3.99983 20.5998 5.09985 19.2998 5.09985ZM19.2998 1.99988C18.8998 1.99988 18.4999 2.2998 18.4999 2.7998C18.4999 3.2998 18.7998 3.59985 19.2998 3.59985C19.6998 3.59985 20.0999 3.2998 20.0999 2.7998C20.0999 2.2998 19.6998 1.99988 19.2998 1.99988Z" fill="#255457"/>
<path fill-rule="evenodd" clip-rule="evenodd" d="M15.7997 22.4998C15.7997 22.4998 19.5998 28.3998 26.6998 24.1998C33.7998 19.9998 33.0998 12.4998 33.0998 12.4998C33.0998 12.4998 26.8998 8.19977 19.6998 12.1998C12.4998 16.2998 15.7997 22.4998 15.7997 22.4998Z" fill="#BFBB52"/>
<path d="M21.7998 26.7996C17.4998 26.7996 15.0998 23.1997 15.0998 23.1997C15.0998 23.1997 15.0998 23.1997 15.0998 23.0997C15.0998 22.9997 11.5998 16.0996 19.2998 11.7996C26.7998 7.59964 33.1999 11.9997 33.4998 12.0997C33.6999 12.1997 33.7998 12.3997 33.7998 12.6997C33.7998 12.9997 34.3999 20.7997 26.9999 25.1997C25.0999 26.3997 23.2998 26.7996 21.7998 26.7996ZM16.4999 22.3996C16.7999 22.8996 20.0998 27.4996 26.2998 23.8996C31.9998 20.4996 32.3998 14.7996 32.2998 13.2996C30.9998 12.4996 25.8998 9.99966 20.0998 13.1997C13.7998 16.6997 16.1999 21.8996 16.4999 22.3996Z" fill="#255457"/>
<path fill-rule="evenodd" clip-rule="evenodd" d="M27.2001 16.9999H25.1001C24.9001 16.9999 24.8 16.8998 24.8 16.6998V14.5999C24.8 14.3999 24.7001 14.2998 24.5001 14.2998H22.6001C22.4001 14.2998 22.3 14.3999 22.3 14.5999V16.6998C22.3 16.8998 22.2001 16.9999 22.0001 16.9999H19.9001C19.7001 16.9999 19.6001 17.0998 19.6001 17.2998V19.1998C19.6001 19.3998 19.7001 19.4999 19.9001 19.4999H22.0001C22.2001 19.4999 22.3 19.5998 22.3 19.7998V21.8998C22.3 22.0998 22.4001 22.1998 22.6001 22.1998H24.5001C24.7001 22.1998 24.8 22.0998 24.8 21.8998V19.7998C24.8 19.5998 24.9001 19.4999 25.1001 19.4999H27.2001C27.4001 19.4999 27.5001 19.3998 27.5001 19.1998V17.2998C27.5001 17.0998 27.4001 16.9999 27.2001 16.9999Z" fill="#255457"/>
</svg>
