<svg width="65" height="93" viewBox="0 0 65 93" fill="none" xmlns="http://www.w3.org/2000/svg">
<path fill-rule="evenodd" clip-rule="evenodd" d="M33.0997 37.2499C33.0997 37.2499 39.4997 47.2498 51.4997 40.1498C63.4997 33.0498 62.2997 20.35 62.2997 20.35C62.2997 20.35 51.7997 13.05 39.6997 19.85C27.5997 26.75 33.0997 37.2499 33.0997 37.2499Z" fill="#BFBB52"/>
<path fill-rule="evenodd" clip-rule="evenodd" d="M32.0996 49.85C32.0996 49.85 25.6996 59.8499 13.6996 52.7499C1.69959 45.6499 2.89954 32.9498 2.89954 32.9498C2.89954 32.9498 13.3996 25.6498 25.4996 32.4498C37.5996 39.3498 32.0996 49.85 32.0996 49.85Z" fill="#BFBB52"/>
<path fill-rule="evenodd" clip-rule="evenodd" d="M32.0996 22.4498C32.0996 22.4498 25.6996 32.45 13.6996 25.35C1.69959 18.25 2.89954 5.54992 2.89954 5.54992C2.89954 5.54992 13.3996 -1.75008 25.4996 5.04992C37.5996 11.8499 32.0996 22.4498 32.0996 22.4498Z" fill="#BFBB52"/>
<path d="M32.9995 92.7495C50.4516 92.7495 64.5995 89.7499 64.5995 86.0496C64.5995 82.3493 50.4516 79.3496 32.9995 79.3496C15.5473 79.3496 1.39941 82.3493 1.39941 86.0496C1.39941 89.7499 15.5473 92.7495 32.9995 92.7495Z" fill="#E2E2E2"/>
<path d="M64.2997 20.7498C64.1997 20.1498 63.8997 19.6499 63.4997 19.3499C62.9997 19.0499 51.8997 11.3498 38.7997 18.7498C37.0997 19.6498 35.7997 20.6498 34.6997 21.7498V21.0499C35.6997 16.9499 35.7997 9.34976 26.2997 3.94976C13.2997 -3.45024 2.09969 4.24986 1.59969 4.54986C1.09969 4.84986 0.799706 5.44976 0.799706 5.94976C0.699706 6.54976 -0.300305 19.9497 12.5997 27.6497C12.9997 27.8497 13.2997 28.0497 13.5997 28.1497C6.79969 28.4497 2.09971 31.6498 1.79971 31.9498C1.29971 32.2498 0.999718 32.8499 0.999718 33.3499C0.899718 33.9499 -0.100293 47.3499 12.7997 55.0499C16.2997 57.1499 19.2997 57.8499 21.9997 57.8499C25.7997 57.8499 28.8997 56.0499 30.9997 54.3499V84.9498C30.9997 86.0498 31.8997 86.9498 32.9997 86.9498C34.0997 86.9498 34.9997 86.0498 34.7997 84.9498V49.1497C35.2997 47.5497 35.6997 45.2499 35.2997 42.5499C37.2997 43.9499 39.9997 45.2498 43.3997 45.2498C46.0997 45.2498 49.0998 44.4498 52.5998 42.4498C65.3998 34.8498 64.2997 21.3498 64.2997 20.7498ZM29.9997 33.8499C28.9997 32.9499 27.7997 32.1499 26.3997 31.3499C25.6997 30.9499 24.8997 30.5498 24.1997 30.2498C27.0997 29.7498 29.2997 28.3498 30.8997 26.9498V27.0499C29.8997 29.4499 29.7997 31.8499 29.9997 33.8499ZM4.69973 7.24981C7.19973 5.84981 15.1997 2.14991 24.3997 7.34991C29.0997 9.94991 30.6997 13.1499 31.1997 15.8499C31.0997 16.0499 30.9997 16.3497 30.9997 16.6497V19.8499L13.6997 9.94976C12.7997 9.44976 11.4997 9.74971 10.9997 10.6497C10.4997 11.5497 10.7997 12.8499 11.6997 13.3499L29.0997 23.3499C26.9997 25.5499 22.1997 28.7498 14.5997 24.2498C5.59969 18.8498 4.69973 10.1498 4.69973 7.24981ZM11.3997 40.7498L29.0997 50.9498C26.8997 53.0498 22.1997 56.0497 14.6997 51.6497C5.69973 46.3497 4.79971 37.5497 4.79971 34.6497C7.29971 33.2497 15.2997 29.5498 24.4997 34.7498C28.2997 36.8498 30.0997 39.3497 30.8997 41.6497V47.3499L13.3997 37.2498C12.4997 36.7498 11.1997 37.0498 10.6997 37.9498C10.1997 38.9498 10.4997 40.1498 11.3997 40.7498ZM50.4997 39.0499C42.8997 43.5499 38.0997 40.3497 35.9997 38.1497L53.3997 28.1497C54.2997 27.6497 54.6998 26.3498 54.0998 25.4498C53.5998 24.5498 52.2997 24.1498 51.3997 24.7498L34.5997 34.3499V28.2498C35.4997 26.1498 37.2997 24.0497 40.6997 22.1497C49.7997 17.0497 57.7997 20.6499 60.2997 22.0499C60.2997 24.9499 59.3997 33.7499 50.4997 39.0499Z" fill="#183D3D"/>
</svg>
