<svg width="39" height="80" viewBox="0 0 39 80" fill="none" xmlns="http://www.w3.org/2000/svg">
<path d="M2.50018 79.5498C1.50018 79.5498 0.700195 78.7498 0.700195 77.7498V1.84985C0.700195 0.849854 1.50018 0.0498047 2.50018 0.0498047C3.50018 0.0498047 4.30017 0.849854 4.30017 1.84985V77.7498C4.30017 78.7498 3.50018 79.5498 2.50018 79.5498Z" fill="#183D3D"/>
<path fill-rule="evenodd" clip-rule="evenodd" d="M4.2999 24.7497C4.2999 24.7497 11.3999 35.8497 24.6999 28.0497C37.9999 20.1497 36.7999 6.04972 36.7999 6.04972C36.7999 6.04972 25.1999 -2.15038 11.6999 5.44962C-1.80007 13.0496 4.2999 24.7497 4.2999 24.7497Z" fill="#BFBB52"/>
<path d="M15.6001 33.2498C7.30006 33.2498 2.90007 26.4499 2.80007 26.3499L2.7001 26.2498C2.6001 26.1498 -3.99993 12.9498 10.8001 4.54981C25.1001 -3.45019 37.3001 4.84976 37.8001 5.24976C38.2001 5.54976 38.5001 6.04981 38.5001 6.54981C38.6001 7.14981 39.7001 21.8498 25.6001 30.2498C21.8001 32.4498 18.5001 33.2498 15.6001 33.2498ZM5.80007 24.5498C6.40007 25.4498 12.5001 33.8497 23.8001 27.1497C34.3001 20.9497 35.0001 10.6497 35.0001 7.64966C32.4001 6.14966 23.1001 1.64966 12.5001 7.64966C1.10009 14.0497 5.30007 23.4498 5.80007 24.5498Z" fill="#183D3D"/>
<path d="M3.60024 27.3498C3.00024 27.3498 2.40024 27.0496 2.10024 26.4496C1.60024 25.6496 1.90025 24.5497 2.80025 24.0497L25.1002 11.2497C25.9002 10.7497 27.0003 11.0496 27.5003 11.9496C28.0003 12.7496 27.7003 13.8498 26.8003 14.3498L4.50026 27.1496C4.20026 27.2496 3.90024 27.3498 3.60024 27.3498Z" fill="#183D3D"/>
</svg>
