<svg width="32" height="33" viewBox="0 0 32 33" fill="none" xmlns="http://www.w3.org/2000/svg">
<path d="M12.1448 32.7999C11.7448 32.7999 11.3447 32.4 11.3447 32V4.69995C11.3447 4.29995 11.7448 3.8999 12.1448 3.8999C12.5448 3.8999 12.9448 4.29995 12.9448 4.69995V32C12.9448 32.4 12.6448 32.7999 12.1448 32.7999Z" fill="#255457"/>
<path fill-rule="evenodd" clip-rule="evenodd" d="M24.2449 10.3001C24.2449 10.3001 22.145 12.4001 24.545 15.0001C26.945 17.5001 30.045 16.5001 30.045 16.5001C30.045 16.5001 31.2448 13.5 28.8448 10.9C26.4448 8.30004 24.2449 10.3001 24.2449 10.3001Z" fill="#58AA96"/>
<path d="M28.445 17.5001C27.145 17.5001 25.4449 17.1001 23.8449 15.5001C21.5449 13.1001 22.6451 10.7001 23.5451 9.7001C23.5451 9.7001 23.545 9.7001 23.645 9.7001C24.645 8.9001 27.1449 7.90005 29.3449 10.4001C32.0449 13.3001 30.745 16.7001 30.645 16.8001C30.545 17.0001 30.345 17.2001 30.145 17.3001C30.045 17.3001 29.445 17.5001 28.445 17.5001ZM24.645 10.9001C24.445 11.2001 23.2451 12.6001 25.0451 14.4001C26.6451 16.1001 28.5449 15.9001 29.3449 15.8001C29.5449 15.0001 29.7451 13.1001 28.2451 11.4001C26.4451 9.60005 24.945 10.7001 24.645 10.9001Z" fill="#255457"/>
<path fill-rule="evenodd" clip-rule="evenodd" d="M6.84492 2.19982C6.84492 2.19982 4.24502 0.799801 2.44502 3.7998C0.64502 6.7998 2.44502 9.49987 2.44502 9.49987C2.44502 9.49987 5.64502 9.7998 7.44502 6.7998C9.34502 3.7998 6.84492 2.19982 6.84492 2.19982Z" fill="#58AA96"/>
<path d="M2.74507 10.1C2.54507 10.1 2.44492 10.1 2.34492 10.1C2.14492 10.1 1.94507 9.99993 1.74507 9.79993C1.64507 9.69993 -0.355029 6.69993 1.64497 3.29993C3.34497 0.39993 5.94497 0.799905 7.14497 1.39991C7.14497 1.39991 7.14507 1.39991 7.24507 1.39991C8.34507 2.09991 9.94497 4.19998 8.14497 7.09998C6.44497 9.89998 3.74507 10.1 2.74507 10.1ZM5.34492 2.5C4.64492 2.5 3.74512 2.79998 3.04512 4.09998C1.84512 6.09998 2.54492 7.89998 2.84492 8.59998C3.64492 8.59998 5.54507 8.29993 6.74507 6.29993C8.04507 4.09993 6.54492 2.89993 6.34492 2.79993C6.24492 2.69993 5.84492 2.5 5.34492 2.5Z" fill="#255457"/>
<path d="M12.345 15.9999C12.145 15.9999 11.9452 15.8998 11.7452 15.6998C11.4452 15.3998 11.445 14.8999 11.845 14.5999L17.345 9.69983C17.445 9.59983 17.645 9.49988 17.845 9.49988L23.7452 9.2998C24.1452 9.2998 24.5452 9.59985 24.5452 10.0999C24.5452 10.4999 24.2452 10.8998 23.7452 10.8998L18.1451 11.0999L12.845 15.7998C12.745 15.9998 12.545 15.9999 12.345 15.9999Z" fill="#255457"/>
<path d="M19.345 10.8999C19.145 10.8999 18.945 10.7999 18.845 10.6999C18.545 10.3999 18.4452 9.89997 18.7452 9.59997L21.2452 6.59997C21.5452 6.29997 22.045 6.2 22.345 6.5C22.645 6.8 22.7451 7.29997 22.4451 7.59997L19.9451 10.6C19.7451 10.8 19.545 10.8999 19.345 10.8999Z" fill="#255457"/>
<path d="M11.9452 7.89993C11.7452 7.89993 11.5451 7.79998 11.3451 7.69998L6.34512 2.69998C6.04512 2.39998 6.04512 1.9 6.34512 1.6C6.64512 1.3 7.14521 1.3 7.44521 1.6L12.4452 6.6C12.7452 6.9 12.7452 7.39998 12.4452 7.69998C12.3452 7.79998 12.1452 7.89993 11.9452 7.89993Z" fill="#255457"/>
<path fill-rule="evenodd" clip-rule="evenodd" d="M2.94482 32.1H10.9448H14.2449H22.2449C22.2449 25.2 20.1447 26.1 19.8447 21.6C15.0447 23.8 18.0448 26.5999 16.1448 28.3999C16.1448 28.3999 16.1448 26.7999 15.4448 25.3999C14.7448 24.0999 14.1448 23.2999 14.1448 23.2999C14.1448 23.2999 14.2448 23.9 13.1448 25.1C12.5448 23.6 11.8448 22.4 11.6448 20.2C9.64478 21.1 8.54492 23.1 9.04492 25.1C9.44492 26.9 8.24487 28.3999 8.24487 28.3999C8.24487 28.3999 8.24492 26.7999 7.54492 25.3999C6.84492 24.0999 6.24487 23.2999 6.24487 23.2999C6.24487 23.2999 6.34482 23.9999 4.94482 25.3999C3.54482 26.7999 3.24487 28.7999 3.24487 29.7999C2.94487 30.6999 2.94482 31.4 2.94482 32.1Z" fill="#BFBB52"/>
<path d="M22.1448 33H2.94482C2.44482 33 2.04492 32.6 2.04492 32.1V29.9C2.04492 29.2 2.14492 26.6 4.04492 24.8C4.94492 24 5.04492 23.5 5.04492 23.4C5.04492 23 5.24492 22.7 5.54492 22.5C5.94492 22.3 6.34478 22.4 6.64478 22.7C6.64478 22.7 7.14487 23.3 7.74487 24.4C7.64487 22.3 8.84482 20.4 10.9448 19.4C11.2448 19.3 11.5449 19.3 11.7449 19.4C12.0449 19.5 12.1448 19.8 12.1448 20.1C12.2448 21.4 12.5447 22.3 12.8447 23.1C12.8447 22.8 13.0447 22.6 13.3447 22.4C13.7447 22.2 14.1448 22.3 14.4448 22.6C14.4448 22.6 15.0449 23.3 15.7449 24.5C15.9449 23.2 16.6448 21.8 19.1448 20.6C19.4448 20.5 19.7448 20.5 19.9448 20.6C20.2448 20.7 20.3447 21 20.3447 21.3C20.4447 23 20.8447 23.8 21.3447 24.8C22.0447 26.1 22.7449 27.7 22.7449 31.9C23.0449 32.6 22.6448 33 22.1448 33ZM3.84473 31.2H21.2449C21.1449 28.1 20.5449 27 20.0449 25.8C19.6449 25 19.2449 24.3 19.0449 23C17.6449 23.9 17.6448 24.8 17.6448 26C17.6448 26.9 17.6448 28.1 16.6448 29.1C16.3448 29.4 16.0448 29.4 15.6448 29.3C15.3448 29.2 15.0449 28.8 15.0449 28.5C15.0449 28.5 15.0448 27.1 14.4448 25.9C14.3448 25.6 14.1449 25.4 14.0449 25.2C13.9449 25.4 13.7449 25.6 13.5449 25.8C13.3449 26 13.0449 26.1 12.7449 26.1C12.4449 26 12.2449 25.8 12.0449 25.6C11.9449 25.4 11.8449 25.2 11.7449 25C11.3449 24.1 10.9448 23.1 10.6448 21.9C9.74478 22.7 9.34478 23.9 9.64478 25C10.1448 27.2 8.74487 29 8.74487 29C8.54487 29.3 8.14487 29.4 7.74487 29.3C7.34487 29.2 7.14478 28.8 7.14478 28.4C7.14478 28.4 7.14492 27 6.54492 25.8C6.44492 25.5 6.24478 25.3 6.14478 25.1C5.94478 25.4 5.64473 25.7 5.34473 26C4.04473 27.3 3.84473 29.2 3.84473 29.8V31.2Z" fill="#255457"/>
</svg>
